<svg xmlns="http://www.w3.org/2000/svg" width="1200" height="104" viewBox="0 0 1200 104" role="img" aria-labelledby="title desc">
<title id="title">Tech stack</title>
<desc id="desc">Vigil README section 07: Tech stack.</desc>
<rect x="0" y="0" width="1200" height="104" rx="0" fill="#181818"/>
<rect x="0" y="0" width="5" height="104" rx="0" fill="#18B880"/>
<g aria-label="07"><path fill="#A9AD9E" d="M43.897999999999996 65.24Q42.0 65.24 40.42762694300518 64.17251575931232Q38.85525388601036 63.10503151862464 37.919626943005184 61.15625214899713Q36.984 59.207472779369624 36.984 56.576Q36.984 53.936 37.90657988165681 52.006249999999994Q38.82915976331361 50.076499999999996 40.38844970414201 49.018249999999995Q41.94773964497041 47.96 43.84487573964497 47.96Q45.768 47.96 47.32862827225131 49.01594713656388Q48.889256544502615 50.071894273127754 49.81262827225131 52.00986784140969Q50.736000000000004 53.94784140969163 50.736000000000004 56.6063436123348Q50.736000000000004 59.24 49.813 61.18628099173554Q48.89 63.13256198347108 47.343 64.18628099173554Q45.796 65.24 43.897999999999996 65.24ZM43.85056488549618 62.648Q45.096000000000004 62.648 46.008 61.976Q46.92 61.304 47.436 59.96Q47.952 58.616 47.952 56.57770558375635Q47.952 54.56 47.436 53.216Q46.92 51.872 45.996 51.212Q45.072 50.552 43.83865648854962 50.552Q42.624 50.552 41.7 51.212Q40.775999999999996 51.872 40.272 53.204Q39.768 54.536 39.768 56.56564467005076Q39.768 58.616 40.272 59.96Q40.775999999999996 61.304 41.7 61.976Q42.624 62.648 43.85056488549618 62.648ZM54.744 65.0 60.864 49.879999999999995H63.6L57.623999999999995 65.0ZM52.344 50.672V48.2H63.6V49.879999999999995L62.424 50.672Z"/></g>
<line x1="86" y1="32" x2="86" y2="72" stroke="#45483F" stroke-width="1"/>
<g aria-label="Tech stack"><path fill="#D5D8C5" d="M126.112 74.0V35.92H132.552V74.0ZM113.344 40.68V34.8H145.32V40.68ZM162.56799999999998 74.56Q158.536 74.56 155.31599999999997 72.74000000000001Q152.09599999999998 70.92 150.21999999999997 67.72800000000001Q148.344 64.536 148.344 60.56Q148.344 56.584 150.192 53.42Q152.04 50.256 155.204 48.408Q158.368 46.56 162.232 46.56Q165.98399999999998 46.56 168.868 48.296Q171.75199999999998 50.032 173.404 53.056Q175.05599999999998 56.08 175.05599999999998 59.944Q175.05599999999998 60.616 174.97199999999998 61.316Q174.88799999999998 62.016 174.72 62.856H152.65599999999998V57.816H171.528L169.232 59.832Q169.11999999999998 57.367999999999995 168.27999999999997 55.687999999999995Q167.44 54.007999999999996 165.89999999999998 53.111999999999995Q164.35999999999999 52.216 162.11999999999998 52.216Q159.768 52.216 158.03199999999998 53.224000000000004Q156.296 54.232 155.344 56.052Q154.392 57.872 154.392 60.391999999999996Q154.392 62.912 155.39999999999998 64.816Q156.408 66.72 158.25599999999997 67.756Q160.10399999999998 68.792 162.512 68.792Q164.584 68.792 166.348 68.064Q168.112 67.336 169.344 65.936L173.26399999999998 69.912Q171.30399999999997 72.208 168.50399999999996 73.384Q165.70399999999998 74.56 162.56799999999998 74.56ZM192.35999999999999 74.56Q188.384 74.56 185.164 72.712Q181.944 70.864 180.096 67.672Q178.248 64.48 178.248 60.56Q178.248 56.584 180.096 53.42Q181.944 50.256 185.164 48.408Q188.384 46.56 192.35999999999999 46.56Q195.49599999999998 46.56 198.212 47.764Q200.928 48.968 202.832 51.208L198.79999999999998 55.296Q197.624 53.896 195.97199999999998 53.196Q194.32 52.495999999999995 192.35999999999999 52.495999999999995Q190.064 52.495999999999995 188.29999999999998 53.532Q186.53599999999997 54.568 185.55599999999998 56.36Q184.576 58.152 184.576 60.56Q184.576 62.912 185.55599999999998 64.732Q186.53599999999997 66.55199999999999 188.29999999999998 67.588Q190.064 68.624 192.35999999999999 68.624Q194.32 68.624 195.97199999999998 67.924Q197.624 67.224 198.79999999999998 65.824L202.832 69.912Q200.928 72.152 198.212 73.356Q195.49599999999998 74.56 192.35999999999999 74.56ZM225.67999999999998 74.0V58.488Q225.67999999999998 55.8 223.97199999999998 54.064Q222.26399999999998 52.328 219.58971428571425 52.328Q217.76971428571426 52.328 216.37685714285712 53.112Q214.98399999999998 53.896 214.2 55.296Q213.41599999999997 56.696 213.41599999999997 58.488L211.00799999999998 57.144Q211.00799999999998 54.064 212.35199999999998 51.684Q213.69599999999997 49.304 216.07017258883246 47.932Q218.44434517766496 46.56 221.44617258883247 46.56Q224.44799999999998 46.56 226.79999999999998 47.904Q229.152 49.248000000000005 230.49599999999998 51.628Q231.83999999999997 54.007999999999996 231.83999999999997 57.144V74.0ZM207.25599999999997 74.0V33.68H213.41599999999997V74.0ZM258.104 74.56Q255.86399999999995 74.56 253.79199999999997 73.97200000000001Q251.71999999999997 73.384 249.98399999999998 72.292Q248.24799999999996 71.2 246.95999999999995 69.632L250.87999999999997 65.712Q252.27999999999997 67.336 254.09999999999997 68.148Q255.91999999999996 68.96 258.21599999999995 68.96Q260.28799999999995 68.96 261.352 68.344Q262.41599999999994 67.728 262.41599999999994 66.55199999999999Q262.41599999999994 65.32 261.40799999999996 64.648Q260.4 63.976 258.804 63.5Q257.20799999999997 63.024 255.44399999999996 62.519999999999996Q253.67999999999995 62.016 252.08399999999995 61.147999999999996Q250.48799999999997 60.28 249.47999999999996 58.768Q248.47199999999995 57.256 248.47199999999995 54.848Q248.47199999999995 52.272 249.67599999999996 50.424Q250.87999999999997 48.576 253.09199999999996 47.568Q255.30399999999995 46.56 258.38399999999996 46.56Q261.63199999999995 46.56 264.12399999999997 47.708Q266.616 48.855999999999995 268.29599999999994 51.152L264.376 55.072Q263.19999999999993 53.616 261.68799999999993 52.888Q260.17599999999993 52.16 258.21599999999995 52.16Q256.36799999999994 52.16 255.35999999999996 52.72Q254.35199999999995 53.28 254.35199999999995 54.344Q254.35199999999995 55.464 255.35999999999996 56.08Q256.36799999999994 56.696 257.96399999999994 57.144Q259.55999999999995 57.592 261.32399999999996 58.123999999999995Q263.08799999999997 58.656 264.68399999999997 59.58Q266.28 60.504 267.28799999999995 62.044Q268.29599999999994 63.584 268.29599999999994 66.048Q268.29599999999994 69.968 265.5519999999999 72.26400000000001Q262.80799999999994 74.56 258.104 74.56ZM277.47999999999996 74.0V35.92H283.63999999999993V74.0ZM271.03999999999996 52.72V47.120000000000005H290.0799999999999V52.72ZM305.816 74.56Q302.17599999999993 74.56 299.23599999999993 72.712Q296.29599999999994 70.864 294.58799999999997 67.7Q292.87999999999994 64.536 292.87999999999994 60.616Q292.87999999999994 56.64 294.58799999999997 53.476Q296.29599999999994 50.312 299.23599999999993 48.436Q302.17599999999993 46.56 305.816 46.56Q308.89599999999996 46.56 311.27599999999995 47.876000000000005Q313.65599999999995 49.192 315.0559999999999 51.488Q316.45599999999996 53.784 316.45599999999996 56.696V64.424Q316.45599999999996 67.336 315.08399999999995 69.632Q313.71199999999993 71.928 311.304 73.244Q308.89599999999996 74.56 305.816 74.56ZM306.82399999999996 68.736Q310.23999999999995 68.736 312.3399999999999 66.44Q314.43999999999994 64.144 314.43999999999994 60.56Q314.43999999999994 58.152 313.48799999999994 56.304Q312.53599999999994 54.456 310.828 53.42Q309.11999999999995 52.384 306.82399999999996 52.384Q304.58399999999995 52.384 302.876 53.42Q301.16799999999995 54.456 300.188 56.304Q299.20799999999997 58.152 299.20799999999997 60.56Q299.20799999999997 62.968 300.188 64.816Q301.16799999999995 66.664 302.876 67.7Q304.58399999999995 68.736 306.82399999999996 68.736ZM314.04799999999994 74.0V66.776L315.11199999999997 60.224000000000004L314.04799999999994 53.727999999999994V47.120000000000005H320.20799999999997V74.0ZM339.41599999999994 74.56Q335.43999999999994 74.56 332.2199999999999 72.712Q328.99999999999994 70.864 327.15199999999993 67.672Q325.304 64.48 325.304 60.56Q325.304 56.584 327.15199999999993 53.42Q328.99999999999994 50.256 332.2199999999999 48.408Q335.43999999999994 46.56 339.41599999999994 46.56Q342.55199999999996 46.56 345.268 47.764Q347.984 48.968 349.888 51.208L345.856 55.296Q344.67999999999995 53.896 343.02799999999996 53.196Q341.376 52.495999999999995 339.41599999999994 52.495999999999995Q337.11999999999995 52.495999999999995 335.356 53.532Q333.592 54.568 332.61199999999997 56.36Q331.63199999999995 58.152 331.63199999999995 60.56Q331.63199999999995 62.912 332.61199999999997 64.732Q333.592 66.55199999999999 335.356 67.588Q337.11999999999995 68.624 339.41599999999994 68.624Q341.376 68.624 343.02799999999996 67.924Q344.67999999999995 67.224 345.856 65.824L349.888 69.912Q347.984 72.152 345.268 73.356Q342.55199999999996 74.56 339.41599999999994 74.56ZM371.39199999999994 74.0 360.02399999999994 60.28 371.33599999999996 47.120000000000005H378.67199999999997L365.67999999999995 61.903999999999996L365.96 58.376L379.23199999999997 74.0ZM354.31199999999995 74.0V33.68H360.472V74.0Z"/></g>
<rect x="1096" y="47" width="10" height="10" rx="0" fill="#18B880"/>
<rect x="1118" y="47" width="10" height="10" rx="0" fill="#F9771D"/>
<rect x="1140" y="47" width="10" height="10" rx="0" fill="#CE6969"/>
</svg>
